<?xml version="1.0" encoding="UTF-8" standalone="no"?>
<svg
   version="1.1"
   x="0"
   y="0"
   width="72"
   height="72"
   viewBox="0 0 72.000004 72.000002"
   id="svg2"
   sodipodi:docname="civictech_sodegaura_logo.svg"
   inkscape:version="1.3 (0e150ed, 2023-07-21)"
   xmlns:inkscape="http://www.inkscape.org/namespaces/inkscape"
   xmlns:sodipodi="http://sodipodi.sourceforge.net/DTD/sodipodi-0.dtd"
   xmlns="http://www.w3.org/2000/svg"
   xmlns:svg="http://www.w3.org/2000/svg">
  <defs
     id="defs2" />
  <sodipodi:namedview
     id="namedview2"
     pagecolor="#ffffff"
     bordercolor="#000000"
     borderopacity="0.25"
     inkscape:showpageshadow="2"
     inkscape:pageopacity="0.0"
     inkscape:pagecheckerboard="0"
     inkscape:deskcolor="#d1d1d1"
     inkscape:zoom="4.3690759"
     inkscape:cx="36.277694"
     inkscape:cy="27.007999"
     inkscape:window-width="1360"
     inkscape:window-height="853"
     inkscape:window-x="0"
     inkscape:window-y="25"
     inkscape:window-maximized="0"
     inkscape:current-layer="svg2" />
  <g
     id="Layer_2"
     transform="matrix(0.88611924,0,0,0.83898305,-240.8306,-261.33407)">
    <path
       d="m 295.996,358.594 q 2.044,2.15 2.044,6.641 0,2.087 -0.8,3.921 -0.799,1.835 -0.799,3.795 0,1.645 0.666,2.91 0.667,1.265 3.421,1.265 1.6,0 3.066,0.443 1.466,0.442 1.466,2.087 0,0.949 -0.711,1.55 -0.711,0.6 -1.777,0.917 -1.066,0.316 -2.31,0.443 -1.244,0.126 -2.311,0.126 -3.909,0 -6.486,-1.233 -2.577,-1.234 -3.955,-3.195 -1.377,-1.96 -1.599,-4.364 -0.222,-2.403 0.578,-4.744 1.599,-4.807 -0.045,-7.716 -1.644,-2.91 -6.087,-2.91 -2.043,0 -3.243,-0.822 -1.2,-0.822 -1.2,-2.024 0,-1.202 1.2,-2.024 1.2,-0.822 3.243,-0.822 4.443,0 6.087,-2.91 1.644,-2.909 0.045,-7.716 -0.8,-2.341 -0.578,-4.744 0.222,-2.404 1.599,-4.364 1.378,-1.961 3.955,-3.195 2.577,-1.233 6.486,-1.233 1.067,0 2.311,0.126 1.244,0.127 2.31,0.443 1.066,0.317 1.777,0.886 0.711,0.569 0.711,1.518 0,1.708 -1.466,2.15 -1.466,0.443 -3.066,0.443 -2.754,0 -3.421,1.044 -0.666,1.043 -0.666,2.435 0,2.403 0.799,4.396 0.8,1.992 0.8,4.016 0,4.491 -2.044,6.641 c 0,0 -1.541,2.577 -1.406,2.677 0.136,0.1 1.406,3.143 1.406,3.143 z"
       fill="#24a418"
       id="path1" />
    <path
       d="m 316.704,328.676 c -0.918,10.816 -3.323,19.328 -7.696,27.2 l 8.273,5.441 c 5.116,-8.576 7.986,-18.084 8.905,-30.884 z m 31.479,9.664 h -30.874 l 0.514,9.828 11.567,-0.273 c -0.043,18.88 -1.312,22.008 -11.239,24.696 l 1.956,10.101 c 12.551,-3.328 18.234,-11.996 18.278,-34.524 h 9.883 z"
       fill="#24a418"
       id="path2" />
  </g>
</svg>
