<?xml version="1.0" encoding="UTF-8"?>
<!DOCTYPE svg PUBLIC "-//W3C//DTD SVG 1.1//EN" "http://www.w3.org/Graphics/SVG/1.1/DTD/svg11.dtd">
<svg version="1.1" xmlns="http://www.w3.org/2000/svg" xmlns:xlink="http://www.w3.org/1999/xlink" viewBox="0, 0, 42.334, 51.885">
  <g id="レイヤー_1" transform="translate(2.214, -44.049)">
    <path d="M39.886,95.933 Q37.015,95.933 34.202,95.406 Q31.39,94.879 28.753,93.97 Q26.116,93.062 23.699,91.846 Q21.282,90.631 19.231,89.298 Q17.181,87.965 15.555,86.573 Q13.929,85.181 12.845,83.892 Q9.534,83.072 6.766,81.08 Q3.997,79.088 2.005,76.392 Q0.013,73.697 -1.101,70.518 Q-2.214,67.34 -2.214,64.146 Q-2.214,59.986 -0.603,56.324 Q1.009,52.662 3.851,49.937 Q6.692,47.213 10.56,45.631 Q14.427,44.049 18.968,44.049 Q23.48,44.049 27.347,45.631 Q31.214,47.213 34.056,49.937 Q36.897,52.662 38.509,56.324 Q40.12,59.986 40.12,64.146 Q40.12,67.515 38.919,70.782 Q37.718,74.049 35.594,76.773 Q33.47,79.498 30.525,81.446 Q27.581,83.394 24.065,84.097 Q24.71,86.031 26.219,87.965 Q27.728,89.898 29.822,91.436 Q31.917,92.974 34.495,93.926 Q37.073,94.879 39.886,94.879 z M18.968,82.75 Q22.249,82.398 24.813,80.948 Q27.376,79.498 29.134,77.11 Q30.892,74.722 31.814,71.456 Q32.737,68.189 32.737,64.146 Q32.737,60.132 31.829,56.793 Q30.921,53.453 29.163,51.036 Q27.405,48.619 24.842,47.286 Q22.278,45.953 18.968,45.953 Q15.569,45.953 12.991,47.286 Q10.413,48.619 8.685,51.036 Q6.956,53.453 6.077,56.793 Q5.198,60.132 5.198,64.146 Q5.198,68.189 6.077,71.588 Q6.956,74.986 8.685,77.476 Q10.413,79.966 12.991,81.358 Q15.569,82.75 18.968,82.75 z" fill="#595959" fill-opacity="0.727"/>
  </g>
</svg>
